<svg id="レイヤー_1" data-name="レイヤー 1" xmlns="http://www.w3.org/2000/svg" preserveAspectRatio="xMinYMid" width="39.13628" height="30.26954" viewBox="0 0 39.13628 30.26954"><defs><style>.cls-1{fill:#d2aa3c;}</style></defs><path class="cls-1" d="M39.13628,7.221a2.97333,2.97333,0,1,0-5.11057,2.06382c-2.022,4.18736-5.88695,5.64923-8.88233,4.32594-2.66815-1.18-3.65229-4.55288-3.98556-7.16607a3.41942,3.41942,0,1,0-3.17928,0c-.3332,2.61327-1.31734,5.9861-3.98556,7.16607-2.99546,1.32337-6.86032-.13858-8.88233-4.32594a2.97257,2.97257,0,1,0-2.52131.88263L6.0159,22.70929H33.12038l3.42656-12.54181A2.97191,2.97191,0,0,0,39.13628,7.221Z"/><path class="cls-1" d="M34.78054,28.05758a2.212,2.212,0,0,1-2.21312,2.212H6.56893a2.21176,2.21176,0,0,1-2.212-2.212v-.18391a2.21191,2.21191,0,0,1,2.212-2.21311H32.56742a2.21217,2.21217,0,0,1,2.21312,2.21311Z"/></svg>