<svg id="レイヤー_1" data-name="レイヤー 1" xmlns="http://www.w3.org/2000/svg" width="545.21002" height="136.05" viewBox="0 0 545.21002 136.05"><defs><style>.cls-1{fill:#003da5;}.cls-2{isolation:isolate;}.cls-3{fill:#222;}</style></defs><g id="政府広報オンラインロゴ"><path class="cls-1" d="M91.67,8.74A21.59,21.59,0,0,0,70.09,30.33a20.91943,20.91943,0,0,0,.12,2.25c-6.24-9-13.6-15.85-20.45-19.24C34,5.55,22.64,10.23,16.88,15.52s-8.1,15-4.68,22.91S24.51,53.08,34.8,52s11.69-8.57,20.57-6.55S71.88,58.22,73.75,69.28s2.5,24.62-6.54,33.66a51.99951,51.99951,0,0,1-9.83,7.74,27.9,27.9,0,0,0-15.63-51c-26,0-33,19.73-33,33.44,0,14,10.16,34.44,36.19,34.44S86.69,105,85.28,76a82.00063,82.00063,0,0,0-6.87-28.64A21.58,21.58,0,1,0,91.67,8.74Z"/><g class="cls-2"><path class="cls-3" d="M174.542,83.0293a1.72747,1.72747,0,0,1,1.91992,1.96777c0,1.2002-.57568,1.96875-1.77587,1.96875h-1.82422c-.52784,6.67188-1.91993,14.64063-6.76856,21.50586,2.78418,3.12012,4.56055,4.32031,9.12061,7.2959a1.768,1.768,0,0,1,.96045,1.585,2.33655,2.33655,0,0,1-2.06446,2.35156c-.48,0-.96,0-3.60009-1.82422a36.60674,36.60674,0,0,1-7.00879-6.19238c-5.18457,5.47266-11.28077,8.16113-12.38526,8.16113A2.13957,2.13957,0,0,1,149.148,117.544c0-1.00782.57568-1.44043,1.53613-1.91993a32.79355,32.79355,0,0,0,10.27246-7.20117,38.3,38.3,0,0,1-5.28027-13.20117c-.91211,1.29687-2.40039,3.457-3.55225,3.457a2.11722,2.11722,0,0,1-2.01611-1.91992,1.94982,1.94982,0,0,1,.52783-1.2002,4.74144,4.74144,0,0,1-.81592.09571h-4.65625v14.40136c3.98438-.8164,4.27247-.86425,5.95215-1.248a4.32872,4.32872,0,0,1,1.2002-.19239,1.57938,1.57938,0,0,1,1.48828,1.77637c0,1.44043-.81592,1.67969-2.92822,2.208-1.2002.28809-15.84131,3.60059-17.95362,3.60059-1.53613,0-1.728-1.63282-1.728-2.11231,0-1.63184.86377-1.77637,2.64013-2.06445V90.08594a1.61964,1.61964,0,0,1,1.77637-1.87207c1.728,0,1.82373,1.15136,1.82373,1.87207v21.36133c2.3042-.38379,3.21631-.52735,4.03272-.67188v-29.666h-8.06495a1.71623,1.71623,0,0,1-2.01611-1.82422c0-1.77637,1.39209-1.82422,2.01611-1.82422h18.38575a1.59441,1.59441,0,0,1,1.82421,1.72754c0,1.34472-.57617,1.9209-1.96826,1.9209h-6.48047V91.91016h4.65625c1.2002,0,1.96827.43164,1.82422,2.208a44.64479,44.64479,0,0,0,6.43262-16.0332c.33594-1.82422.57617-2.832,2.16016-2.832.23974,0,2.25586.0957,2.25586,1.77539a28.3385,28.3385,0,0,1-1.2959,6.001Zm-14.68945,3.93652c-.33594.91211-.48,1.15137-1.48779,3.45606a35.0312,35.0312,0,0,0,5.13623,14.7373c3.50439-5.4248,4.99267-11.76074,5.47265-18.19336Z"/><path class="cls-3" d="M198.4917,77.07617c0-.96.38428-1.77539,1.87256-1.77539,1.248,0,2.208.28809,2.208,1.77539v2.44824h17.66552a1.745,1.745,0,0,1,2.01612,1.873c0,1.43945-.91211,1.87207-2.01612,1.87207H187.45117c-1.96826,0-2.83252.96-2.83252,2.832V99.01465c0,5.76074-.33594,11.56836-2.01611,17.08887-.81592,2.64062-1.2959,3.40918-2.49609,3.40918a2.23163,2.23163,0,0,1-2.3042-2.01661c0-.52832,1.53613-4.80078,1.728-5.76074a52.32932,52.32932,0,0,0,1.24805-12.625V85.71777c0-4.70507,1.728-6.19336,6.19238-6.19336h11.521Zm-3.50391,40.9961c0,.8164-.144,1.87207-1.87256,1.87207-1.584,0-1.87207-.81641-1.87207-1.87207V99.35059a38.90232,38.90232,0,0,1-3.07226,3.74414,2.13552,2.13552,0,0,1-1.48779.8164,2.27382,2.27382,0,0,1-1.96827-2.25683,2.20986,2.20986,0,0,1,.86377-1.584,39.12829,39.12829,0,0,0,8.78516-14.44922c.23975-.57617.52783-1.34375,1.67969-1.34375.8164,0,2.1123.4795,2.1123,1.67969,0,.7207-1.43994,4.17676-3.168,7.44141Zm22.17774-3.84082c0,5.3291-2.16016,5.3291-7.87256,5.3291a12.32715,12.32715,0,0,1-3.26416-.24024,2.02739,2.02739,0,0,1-1.0083-1.87207,1.66584,1.66584,0,0,1,1.91992-1.82422c.62451,0,3.3125.09571,3.84033.09571,1.34424,0,2.40039-.38379,2.40039-2.35157V95.55859H199.88428c-.62451,0-1.96826-.04882-1.96826-1.82421,0-1.48829.86377-1.87208,1.96826-1.87208h13.29687V86.72559c0-.57618,0-1.87207,1.87207-1.87207,1.39209,0,2.11231.38378,2.11231,1.87207V91.8623h3.60009a1.63583,1.63583,0,0,1,1.82422,1.82422c0,1.2959-.624,1.87207-1.82422,1.87207h-3.60009Zm-12.8169-13.249c1.87207,2.832,3.45606,5.42481,3.936,6.43262a3.39014,3.39014,0,0,1,.28808,1.15234,2.16964,2.16964,0,0,1-2.25634,1.87207c-.96,0-1.00782-.14355-2.54395-2.87988-.76807-1.44043-2.25635-3.60059-3.45654-5.47266a3.281,3.281,0,0,1-.76807-1.77636,2.11094,2.11094,0,0,1,2.40039-1.72852C202.62012,98.67871,203.1001,99.11035,204.34863,100.98242Z"/><path class="cls-3" d="M245.3877,77.17285c0-.57617,0-1.96875,1.96826-1.96875.96,0,2.16015.14453,2.16015,1.96875v3.07227h17.56983a1.68292,1.68292,0,0,1,1.96777,1.82422c0,1.3916-.57568,1.96777-1.96777,1.96777H235.30713c-1.68018,0-2.83252.71973-2.83252,2.832V97.8623a47.42852,47.42852,0,0,1-3.36035,18.67383c-.86377,2.06446-1.39209,2.832-2.4961,2.832a2.31771,2.31771,0,0,1-2.3999-2.1123,3.34461,3.34461,0,0,1,.43164-1.48828c2.25635-4.84766,3.79248-8.30469,3.79248-17.95313V86.4375c0-4.65625,1.728-6.19238,6.24073-6.19238H245.3877Zm8.11279,39.21875c-.91211.09668-19.10547,1.63281-19.92188,1.63281a1.82192,1.82192,0,0,1-2.01611-2.0166,1.59324,1.59324,0,0,1,1.15234-1.72754c.43213-.09668,2.78418-.24023,4.22412-.33691a208.46388,208.46388,0,0,0,7.729-24.57813c.57568-2.208.81592-3.07226,2.3042-3.07226.23974,0,2.352,0,2.352,1.77637a5.2277,5.2277,0,0,1-.1919,1.20019c-.48,1.82422-.52832,1.91992-3.60058,12.09668a111.64434,111.64434,0,0,1-4.46436,12.28906c8.78467-.52734,15.9375-1.00781,20.16162-1.63183-2.11181-4.56055-4.46435-8.59278-5.66406-10.70508a2.54711,2.54711,0,0,1-.48047-1.3916,2.04334,2.04334,0,0,1,2.11231-1.82422,1.84425,1.84425,0,0,1,1.63232,1.05566c.81592,1.34473,1.82422,3.07227,4.03223,7.05664.86426,1.584,5.04053,9.84082,5.04053,11.52149a2.08557,2.08557,0,0,1-2.16016,1.87207c-1.2002,0-1.29639-.19238-3.02441-4.22461Q258.10889,116.03272,253.50049,116.3916Z"/></g><g class="cls-2"><path class="cls-3" d="M291.99609,80.00488a1.55911,1.55911,0,0,1,1.82422,1.77637c0,1.584-1.00781,1.77637-1.82422,1.77637h-6.57617V88.5498h8.01563c1.00879,0,1.72851.38379,1.72851,1.67969,0,.76856-.14453,1.72852-1.63183,1.72852h-1.77637a49.78246,49.78246,0,0,1-1.72852,6.38476H293.292a1.514,1.514,0,0,1,1.68067,1.72754c0,1.10449-.38477,1.77637-1.68067,1.77637h-7.87207V107.415h6.67188a1.77881,1.77881,0,1,1,0,3.55273h-6.67188v7.1045c0,.76757-.04883,2.01562-1.9209,2.01562-1.68066,0-1.91992-.96-1.91992-2.01562v-7.1045h-6.43262a1.65242,1.65242,0,0,1-1.92041-1.77636c0-1.63184,1.15284-1.77637,1.92041-1.77637h6.43262v-5.56836h-7.585a1.62206,1.62206,0,0,1-1.87207-1.72852,1.596,1.596,0,0,1,1.77637-1.77539h3.55273a54.01733,54.01733,0,0,0-1.873-6.38476H273.5625a1.48043,1.48043,0,0,1-1.68018-1.63184,1.60327,1.60327,0,0,1,1.82373-1.77637h7.873V83.55762h-6.48047c-.624,0-1.87256-.04883-1.87256-1.77637,0-1.584,1.00831-1.77637,1.87256-1.77637h6.48047V77.125a1.55912,1.55912,0,0,1,1.77637-1.82422c1.53515,0,2.06445.47949,2.06445,1.82422v2.87988Zm-5.56836,18.33789A36.42481,36.42481,0,0,0,287.916,91.958h-8.78516c.14453.38379,1.63184,5.32812,1.87207,6.38476Zm13.34473-1.29687v20.93066a1.68566,1.68566,0,0,1-1.77637,1.96778c-1.43945,0-1.96777-.57618-1.96777-1.96778V82.02148c0-3.55273,1.15137-5.13671,5.13574-5.13671h9.40918c2.49707,0,4.27246.71972,4.27246,3.792,0,2.25586-.38379,7.39258-1.91992,9.12109-1.05664,1.2002-2.1123,1.2002-7.00879,1.2002-1.10449,0-2.44824,0-2.44824-1.9209,0-1.63184,1.15234-1.63184,1.77637-1.63184.57617,0,3.02441.04785,3.55176,0,1.10449-.0957,1.39257-.81543,1.68066-1.77636a19.5505,19.5505,0,0,0,.47949-3.69629c0-.91211-.24023-1.39161-1.584-1.39161h-7.44043a1.89078,1.89078,0,0,0-2.16016,2.16016V93.58984h10.65723c1.43945,0,4.56054,0,4.56054,3.74414,0,2.30469-1.248,8.35352-4.46484,13.92188.86426.96,1.00781,1.05566,4.94434,4.32031a2.148,2.148,0,0,1-1.1045,3.93653c-1.4873,0-4.51171-3.40918-5.95214-5.041-1.05567,1.34473-3.8877,4.84863-5.32813,4.84863a2.2153,2.2153,0,0,1-2.0166-2.1123c0-.71973.48047-1.15235,1.00781-1.63184a23.16743,23.16743,0,0,0,4.03321-4.08105c-3.64844-5.32813-5.08887-9.98438-5.08887-10.80078a1.6398,1.6398,0,0,1,1.77637-1.63184c1.10351,0,1.39257.76855,1.63183,1.44043a30.71827,30.71827,0,0,0,3.69629,7.72852,29.36558,29.36558,0,0,0,3.02441-8.06446,10.68853,10.68853,0,0,0,.33594-1.9209c0-1.20019-1.15137-1.20019-1.77637-1.20019Z"/></g><g class="cls-2"><path class="cls-3" d="M318.543,89.17383c-.624,0-2.208,0-2.208-2.0166,0-1.91993,1.2959-2.06348,2.208-2.06348h22.22656v-6.625c0-.57617,0-2.1123,2.16016-2.1123,1.87207,0,2.208,1.05664,2.208,2.1123v6.625h10.27246a1.84566,1.84566,0,0,1,2.16015,2.01563c0,1.96777-1.34375,2.06445-2.16015,2.06445H345.1377v23.47363c0,4.75293-2.54493,5.85645-6.81641,5.85645a40.162,40.162,0,0,1-5.90527-.4795,1.92978,1.92978,0,0,1-1.63184-2.06445c0-1.63184.96-1.96777,2.25586-1.96777.24023,0,3.88867.1914,4.65723.1914,2.59179,0,3.07226-.67187,3.07226-2.49609V94.07031c-7.48926,10.99317-20.01855,19.72949-22.4668,19.72949a2.23052,2.23052,0,0,1-2.06347-2.30468c0-1.05567.67187-1.43946,2.832-2.63965A67.78517,67.78517,0,0,0,333.376,97.14258a76.878,76.878,0,0,0,6.48144-7.96875Z"/></g><g class="cls-2"><path class="cls-3" d="M365.05273,80.82129c4.46387,2.49609,9.3125,5.18359,12.96094,8.1123a2.2939,2.2939,0,0,1-1.20019,4.22461,6.2119,6.2119,0,0,1-2.78418-1.44043,69.23585,69.23585,0,0,0-12.57715-7.68066,2.38976,2.38976,0,0,1-1.63281-2.01563,2.4338,2.4338,0,0,1,2.06445-2.25683A5.94786,5.94786,0,0,1,365.05273,80.82129Zm34.51465,5.04c0,1.39258-3.74414,11.76074-9.26465,18.33789-5.76074,6.91211-13.00976,9.88867-19.92187,11.56836a41.47886,41.47886,0,0,1-7.15234,1.15234c-2.35254,0-2.64063-1.63183-2.64063-2.35254,0-1.82324,1.2002-2.06347,2.64063-2.208,16.60937-1.72754,25.77734-8.73633,31.68261-26.30567.47949-1.48828.76758-2.35254,2.11231-2.35254a5.07073,5.07073,0,0,1,1.00781.14356A2.02189,2.02189,0,0,1,399.56738,85.86133Z"/></g><g class="cls-2"><path class="cls-3" d="M407.24316,94.50195a1.99561,1.99561,0,1,1,0-3.98437h31.97071c1.15234,0,4.65625,0,4.65625,3.793a25.78025,25.78025,0,0,1-9.69727,17.56933,32.36164,32.36164,0,0,1-12.625,5.52051,40.06077,40.06077,0,0,1-7.05664,1.10352,2.11522,2.11522,0,0,1-2.39941-2.25586c0-1.63184.86328-1.72852,3.98437-2.16016,4.65625-.624,14.54492-1.96777,20.06543-10.32129a19.66384,19.66384,0,0,0,3.07227-7.87207c0-1.20019-.81641-1.39258-1.91992-1.39258ZM439.502,78.94922a2.04339,2.04339,0,1,1,0,4.08008h-28.707a2.04339,2.04339,0,1,1,0-4.08008Z"/></g><g class="cls-2"><path class="cls-3" d="M472.91113,116.72754c0,.7207-.09668,2.209-2.30468,2.209-1.96778,0-2.25586-1.10449-2.25586-2.209V93.97363c-7.39258,3.84082-17.1377,7.10547-19.05762,7.10547a2.24785,2.24785,0,0,1-2.208-2.40039c0-1.48828.91211-1.77637,2.44824-2.1123,2.92774-.67188,16.60938-4.56055,27.79395-13.48926a70.09161,70.09161,0,0,0,5.4248-4.94434c1.10352-1.10449,1.67969-1.48828,2.44825-1.48828a2.41629,2.41629,0,0,1,2.40039,2.30469,2.95625,2.95625,0,0,1-1.249,2.25586,72.63736,72.63736,0,0,1-13.44043,10.27246Z"/></g><g class="cls-2"><path class="cls-3" d="M496.52246,80.82129c4.46387,2.49609,9.3125,5.18359,12.96094,8.1123a2.29391,2.29391,0,0,1-1.2002,4.22461,6.21679,6.21679,0,0,1-2.78418-1.44043,69.23579,69.23579,0,0,0-12.57714-7.68066,2.39126,2.39126,0,0,1-1.63282-2.01563,2.4338,2.4338,0,0,1,2.06446-2.25683A5.9479,5.9479,0,0,1,496.52246,80.82129Zm34.51465,5.04c0,1.39258-3.74414,11.76074-9.26465,18.33789-5.76074,6.91211-13.00879,9.88867-19.92187,11.56836a41.47877,41.47877,0,0,1-7.15235,1.15234c-2.35254,0-2.63965-1.63183-2.63965-2.35254,0-1.82324,1.19922-2.06347,2.63965-2.208,16.60938-1.72754,25.77832-8.73633,31.68262-26.30567.48047-1.48828.76758-2.35254,2.1123-2.35254a5.05994,5.05994,0,0,1,1.00782.14356A2.02189,2.02189,0,0,1,531.03711,85.86133Z"/></g><g class="cls-2"><path class="cls-1" d="M137.78955,15.52148a1.15607,1.15607,0,0,1,1.2002-.7207c.86963,0,1.40966.33008,1.40966,1.29,0,.06055-.08984,2.19043-.08984,2.42969,1.85986-.0293,5.57959-.08985,7.82959-.21,1.08008-.05957,4.67969-.23926,5.3999-.23926a1.15669,1.15669,0,0,1,1.31983,1.25976c0,1.13965-.75,1.2002-1.37989,1.2295-6.83984.33007-7.61962.33007-13.25927.45019-.06006,1.53028-.06006,1.71-.09034,3.12012a18.16833,18.16833,0,0,1,4.44-.50977c6.95947,0,11.09961,3.50977,11.09961,8.90918,0,5.51953-4.10987,7.67969-7.07959,8.37012a23.13786,23.13786,0,0,1-4.04981.56934c-.63037,0-1.68017-.05957-1.68017-1.34961,0-1.13965.81005-1.16992,1.5-1.2002,1.77-.05957,8.57958-.2998,8.57958-6.50976,0-3.29981-1.98-5.46-5.90966-6.26954a46.017,46.017,0,0,1-5.79,9.89942c.06006.12012.12012.24023.24023.45019a2.86872,2.86872,0,0,1,.44971,1.29,1.4524,1.4524,0,0,1-1.43945,1.29c-.54,0-.87012-.41992-1.17041-.93066-.77979.75-2.54981,2.43066-4.91944,2.43066-2.64013,0-4.56006-2.33984-4.56006-5.58008,0-4.37988,3.23975-8.15918,7.64991-9.98925q.04467-1.98048.08984-3.96c-.8999,0-4.91992.03027-5.72949.03027-.4502,0-1.41016,0-1.41016-1.26074a1.07577,1.07577,0,0,1,1.02-1.19922c.35986-.06055,5.18994,0,6.17969-.03028A15.98952,15.98952,0,0,1,137.78955,15.52148Zm-.33008,11.999c-2.96972,1.62011-5.12988,4.20019-5.12988,7.5,0,2.30957,1.2002,3.17969,2.31006,3.17969,1.41015,0,2.8501-1.44043,3.71973-2.42969A29.39479,29.39479,0,0,1,137.45947,27.52051Zm6.98975-1.67969a14.18945,14.18945,0,0,0-4.37988.59961,34.00343,34.00343,0,0,0,.30029,6.68945A38.00465,38.00465,0,0,0,144.44922,25.84082Z"/></g><g class="cls-2"><path class="cls-1" d="M161.58057,16.87109c0,.50977-.12012,2.7295-.12012,3.17969-.06006,1.46973-.27,9.56934-.27,10.67969,0,3.87012,0,7.88965,6.50977,7.88965a12.10974,12.10974,0,0,0,6.54-1.67969,9.55426,9.55426,0,0,0,3.26954-5.31055c.1499-.50976.54-2.78906.75-3.209a1.2,1.2,0,0,1,1.10986-.60059c.66016,0,1.59033.21,1.59033,1.29a15.18778,15.18778,0,0,1-1.23,4.79981c-1.11035,2.66992-3.48,7.25976-11.84961,7.25976-3.77978,0-6.86963-.99023-8.48975-3.83984-1.02-1.76953-1.02-4.08008-1.02-6.92969,0-2.49023.24023-13.58984.2998-14.03906.15039-1.04981.99023-1.08008,1.5-1.08008C161.58057,15.28125,161.58057,16.33105,161.58057,16.87109Z"/></g><g class="cls-2"><path class="cls-1" d="M194.21973,16.03125A1.17643,1.17643,0,0,1,195.48,15.01074c.92969,0,1.43994.39063,1.43994,1.2002A18.34235,18.34235,0,0,1,196.5,19.24121c2.84961-.08984,5.48975-.18066,9.35938-.33008.39013-.03027,1.98-.08984,2.31005-.08984a1.15324,1.15324,0,0,1,1.3501,1.25976c0,1.2002-.87012,1.2295-1.38037,1.25977-4.0498.17969-8.06934.33008-12.11914.41992a99.19,99.19,0,0,1-4.68018,15.959c-1.10986,2.91015-1.34961,3.45019-2.36963,3.45019-.56982,0-1.43994-.33008-1.43994-1.16992a3.77828,3.77828,0,0,1,.6001-1.71,79.00717,79.00717,0,0,0,5.1294-16.46973c-1.55957.03028-4.10987.03028-4.55957-.02929-.39014-.03028-.96-.24024-.96-1.2002,0-1.16992.75-1.29,1.3501-1.29.35987,0,1.91992.03027,2.24951.03027,1.08008,0,1.91993-.03027,2.37012-.03027C193.85986,18.40137,194.00977,16.93066,194.21973,16.03125ZM212.4292,40.87012a38.769,38.769,0,0,1-5.21973.2998c-7.16992,0-10.07959-1.34961-10.07959-4.67969,0-1.55957.87012-3.15039,2.12989-3.15039.4497,0,1.23.30078,1.23.96a1.83151,1.83151,0,0,1-.18018.75,2.37572,2.37572,0,0,0-.48,1.32032c0,1.34961,1.3501,1.74023,2.04,1.91992a19.23475,19.23475,0,0,0,4.19971.38965c1.43994,0,3.1499-.14942,4.7998-.26953.21,0,1.31982-.12012,1.53027-.12012a1.11545,1.11545,0,0,1,1.23,1.23047A1.29616,1.29616,0,0,1,212.4292,40.87012Zm-.8999-12.50977c-.27,0-.68994-.03027-2.18994-.17969-.89991-.08984-1.79981-.08984-2.1001-.08984a36.85172,36.85172,0,0,0-4.91944.33008c-.36035.0293-2.01025.26953-2.34033.26953a1.11583,1.11583,0,0,1-1.10986-1.2002c0-.92968.68994-1.13964,1.32031-1.31933a38.69941,38.69941,0,0,1,7.55957-.60059,20.25,20.25,0,0,1,4.40967.39063c.6001.26953.6001.71972.6001,1.25976A1.11538,1.11538,0,0,1,211.5293,28.36035Z"/></g><g class="cls-2"><path class="cls-1" d="M228.29932,35.02051c-.98975,1.76953-2.33985,3.54-4.71,3.54-3.23975,0-5.7295-3.48047-5.7295-8.54981,0-8.49023,6.20948-13.67969,14.1294-13.67969,10.01953,0,12.65918,7.01954,12.65918,12.05957a11.24008,11.24008,0,0,1-5.09961,10.01954A15.3742,15.3742,0,0,1,233.459,40.75a11.59129,11.59129,0,0,1-1.52978.21,1.32834,1.32834,0,0,1-1.41016-1.43945c0-1.02051.54-1.08008,2.07032-1.29a14.8075,14.8075,0,0,0,4.58935-1.32031c4.3501-2.21973,4.68018-6.80957,4.68018-8.48926,0-2.94043-1.0503-6.48047-4.10987-8.28028a10.34476,10.34476,0,0,0-5.06982-1.3496C231.50928,28.21094,229.40918,33.01074,228.29932,35.02051Zm-2.25-14.87989c-4.19971,2.19043-5.57959,6.4502-5.57959,9.96,0,3.54,1.58984,5.69921,3.17968,5.69921,1.44,0,2.46-1.7998,3.33008-4.0791a49.0336,49.0336,0,0,0,3-12.83984A11.85118,11.85118,0,0,0,226.04932,20.14062Z"/></g><g class="cls-2"><path class="cls-1" d="M274.58887,16.03125c.75,0,1.11035.33008,1.11035.96s-.30078,1.01953-1.11035,1.01953H267.9292v.36035a.98932.98932,0,0,1-.87012,1.13965H269.999c2.04,0,2.60987.71973,2.60987,2.66992v2.58008c0,2.16016-.68994,2.66992-2.66993,2.66992h-9.83935a14.80086,14.80086,0,0,1-.87012,1.46973h15.41895a.93286.93286,0,0,1,1.08008.99023c0,.89942-.62989.99024-1.08008.99024H268.919a12.00618,12.00618,0,0,0,4.83007,2.93945c1.67969.57031,2.04.75,2.04,1.43946,0,.42089-.33008,1.32031-1.16992,1.32031a12.56745,12.56745,0,0,1-3.33008-1.43946v3.959c0,2.10059-.8999,2.70019-2.66992,2.70019H254.69971c-1.62012,0-2.66992-.47949-2.66992-2.70019V35.23047a11.27357,11.27357,0,0,1-3.17969,1.29,1.26115,1.26115,0,0,1-1.16992-1.32031.97818.97818,0,0,1,.68994-.92969c3.26953-1.29,4.1997-1.65039,6.26953-3.38965H248.79c-.66016,0-1.08008-.27051-1.08008-.96,0-.63086.27-1.02051,1.08008-1.02051h7.70947c.35987-.54.6001-.89941.93018-1.46973h-3.93018c-1.88965,0-2.69971-.45019-2.69971-2.63964V22.18066c0-1.97949.6001-2.66992,2.64014-2.66992h2.99951a.95983.95983,0,0,1-1.02-1.10937v-.39063h-6.59961c-.60009,0-1.10986-.24023-1.10986-.99023,0-.65918.35986-.98926,1.10986-.98926h6.59961v-.66016c0-.33007.03028-1.08007,1.2002-1.08007.8999,0,1.31982.2705,1.31982,1.08007v.66016h7.52979v-.62988c0-.33008,0-1.11035,1.16992-1.11035.8999,0,1.29.2998,1.29,1.11035v.62988Zm-21.35938,6.65918H270.1792v-.92969a.67963.67963,0,0,0-.75-.75H253.97949a.65535.65535,0,0,0-.75.75Zm0,1.4707v.98926a.66678.66678,0,0,0,.75.75H269.4292a.665.665,0,0,0,.75-.75v-.98926Zm15.6294,12.23926v-1.29a.65758.65758,0,0,0-.74951-.71973H255.20947c-.50976,0-.75.23926-.75.71973v1.29Zm0,1.55957H254.45947v1.34961c0,.48047.24024.7207.75.7207h12.89991c.50976,0,.74951-.24023.74951-.7207Zm-1.19971-5.2793a13.675,13.675,0,0,1-1.68018-1.7998h-8.27929a20.314,20.314,0,0,1-1.89014,1.7998Zm-9.71973-14.66992v.39063c0,.65918-.23974,1.0791-1.10986,1.10937H266.459a.9861.9861,0,0,1-.98974-1.13965v-.36035Z"/></g><g class="cls-2"><path class="cls-1" d="M290.93945,24.76074c4.76953,0,9.08985,2.04,9.08985,7.13965a7.63115,7.63115,0,0,1-4.29,7.31934c-1.62012.83984-3.96,1.68066-8.75977,1.68066a35.46688,35.46688,0,0,1-7.28906-.7207,1.19248,1.19248,0,0,1-.93066-1.25977c0-.59961.18066-1.20019,1.23046-1.20019a6.043,6.043,0,0,1,1.13965.18066,32.80516,32.80516,0,0,0,5.63965.50977c3.96,0,7.37988-.66016,9.24024-2.75977a5.91787,5.91787,0,0,0,1.16992-3.71973,4.47869,4.47869,0,0,0-1.41016-3.2998c-1.25976-1.2002-3.59961-1.5-5.12988-1.5A14.61136,14.61136,0,0,0,280.0498,31.4502a2.12036,2.12036,0,0,1-1.37988.57031c-.96,0-1.5293-.54-1.5293-2.21973,0-1.5.32911-6.41992.53907-8.25.12011-1.01953.21-1.76953,1.38086-1.76953.53906,0,1.43945.11914,1.43945,1.0791,0,.15039-.41992,3.48047-.47949,3.99024a33.42067,33.42067,0,0,0-.27051,3.83984A18.18439,18.18439,0,0,1,290.93945,24.76074Zm3.54-5.28027a78.33325,78.33325,0,0,1-9.83984-.86914,25.837,25.837,0,0,1-4.10938-.81055,1.11212,1.11212,0,0,1-.7207-1.08008A1.22409,1.22409,0,0,1,281.04,15.40137c.47949,0,2.66992.47949,3.12012.56933a65.69861,65.69861,0,0,0,9.71972.90039c1.13965.05957,2.39942.05957,2.18946,1.46973C295.919,19.48047,294.98926,19.48047,294.47949,19.48047Z"/></g><g class="cls-2"><path class="cls-1" d="M308.79,16.87109c0,.50977-.12012,2.7295-.12012,3.17969-.05957,1.46973-.26953,9.56934-.26953,10.67969,0,3.87012,0,7.88965,6.50977,7.88965a12.11089,12.11089,0,0,0,6.54-1.67969,9.55969,9.55969,0,0,0,3.26953-5.31055c.14941-.50976.54-2.78906.75-3.209a1.19934,1.19934,0,0,1,1.10937-.60059c.66016,0,1.59082.21,1.59082,1.29a15.17874,15.17874,0,0,1-1.23047,4.79981c-1.11035,2.66992-3.47949,7.25976-11.84961,7.25976-3.77929,0-6.86914-.99023-8.48925-3.83984-1.02051-1.76953-1.02051-4.08008-1.02051-6.92969,0-2.49023.24023-13.58984.2998-14.03906.15039-1.04981.99024-1.08008,1.5-1.08008C308.79,15.28125,308.79,16.33105,308.79,16.87109Z"/></g><g class="cls-2"><path class="cls-1" d="M344.12988,16.21094c.27051-.78028.48047-1.32032,1.37989-1.32032.2705,0,1.44043,0,1.44043,1.11036a8.99181,8.99181,0,0,1-.92969,2.63964c1.61914-.05957,3.71972-.08984,6.50976-.21,3.44922-.14941,5.03907-.17968,5.18946-.17968A1.13843,1.13843,0,0,1,359.04,19.48047a1.02707,1.02707,0,0,1-.99024,1.16992c-.24023.03027-7.46972.33008-13.29.4209a40.262,40.262,0,0,1-2.57911,4.16894,8.17023,8.17023,0,0,1,4.91993-1.76953A4.11137,4.11137,0,0,1,351.54,27.07031a53.65124,53.65124,0,0,1,7.34961-2.09961,1.22119,1.22119,0,0,1,1.22949,1.37989c0,.92968-.65918,1.20019-1.8291,1.46972a57.73116,57.73116,0,0,0-6.38965,1.71c.11914,1.25977.14941,3.4502.14941,4.04981,0,2.16015-.03027,3.06054-1.31933,3.06054-1.32031,0-1.32031-.90039-1.32031-1.7705,0-.57032.03027-3.05957.03027-3.56934a5.7802,5.7802,0,0,0-.03027-.81055,21.96795,21.96795,0,0,0-5.58008,3.15039,3.38394,3.38394,0,0,0-1.43946,2.63965c0,2.33985,3.26954,2.60938,6.65918,2.60938a48.65876,48.65876,0,0,0,5.37012-.29981c1.5-.14941,2.39942-.23925,2.60938-.23925a1.07146,1.07146,0,0,1,1.23047,1.19921c0,.78028-.36036,1.14063-1.34961,1.29a58.58633,58.58633,0,0,1-7.35059.48047c-4.28906,0-5.96973-.51074-7.19922-1.02051a4.0659,4.0659,0,0,1-2.66992-3.68945c0-4.01953,5.04-6.83984,9.44922-8.60937a2.60368,2.60368,0,0,0-2.72949-2.43067c-4.08008,0-7.08008,3.96-8.58008,5.91016-1.22949,1.62012-1.71,2.25-2.48926,2.25a1.35624,1.35624,0,0,1-1.29-1.37988c0-.33008.17969-.66016.83984-1.37989a44.654,44.654,0,0,0,5.18946-6.66015A32.35929,32.35929,0,0,0,342,21.13086c-2.48926.03027-4.67969.05957-5.81934.05957-.38964,0-1.41015,0-1.41015-1.22949a1.04891,1.04891,0,0,1,.99023-1.16992c.21-.03028,6.23926-.08985,7.40918-.12012C343.44043,18.07129,343.89062,16.96094,344.12988,16.21094Z"/></g><g class="cls-2"><path class="cls-1" d="M366.33008,23.02051a1.22812,1.22812,0,0,1-1.46973-1.25977c0-1.22949.96-1.25976,1.37988-1.29l5.06934-.21c.17969-3.59961.21-4.01953.24023-4.31933a1.15324,1.15324,0,0,1,1.29-.93067c1.25977,0,1.29.78028,1.29,1.35059,0,.21,0,.56933-.18066,3.749.39062,0,1.05078-.0293,1.05078.87012a.922.922,0,0,1-.21.66015c-.27051.33008-.7207.78028-.99024,1.08008l-.03027.66016c3.71973-3.41992,6.35938-3.99024,8.72949-3.99024,6.24024,0,8.49024,4.83008,8.49024,9.33008,0,6.11914-2.64063,9.59961-7.67969,10.9795a20.87239,20.87239,0,0,1-4.95019.66015c-.66016,0-1.91993,0-1.91993-1.26074,0-1.16992.87012-1.22949,3.57032-1.37988a10.23825,10.23825,0,0,0,5.33984-1.79981c1.94922-1.34961,2.93945-3.62988,2.93945-6.80957,0-3.21-1.23047-7.29-6.08984-7.29-2.96973,0-5.54981,1.59082-8.58008,4.58985-.08984,2.25-.11914,2.58007-.11914,5.96972,0,1.23047.05957,6.57032.05957,7.65039,0,.59961-.03027,1.67969-1.32031,1.67969-1.25977,0-1.31934-.80957-1.31934-1.55957,0-5.04,0-5.58008.05957-10.53027-.87011,1.32031-2.30957,3.39062-3.17969,4.74023-.87011,1.41016-1.22949,1.53027-1.67968,1.53027a1.366,1.366,0,0,1-1.44043-1.29c0-.54.12011-.66016,1.20019-1.98047a58.66965,58.66965,0,0,0,5.25-7.73926c0-.08984.05957-1.83008.08985-2.07031Z"/></g><g class="cls-2"><path class="cls-1" d="M402.4502,16.33105a1.35327,1.35327,0,0,1,1.37988-1.25976c.24023,0,1.43945.0293,1.43945,1.10937a36.03,36.03,0,0,1-1.0498,4.56055c.62988-.03027,1.55957-.06055,2.51953-.06055a5.96557,5.96557,0,0,1,5.04,2.04c1.53027,1.86035,1.53027,4.71,1.53027,5.96973,0,11.21973-3.03027,12.62988-6.45019,12.62988a11.60044,11.60044,0,0,1-5.18946-1.29,1.33823,1.33823,0,0,1-.80957-1.20019A1.23746,1.23746,0,0,1,402,37.48047a2.31063,2.31063,0,0,1,.83984.26953,8.03233,8.03233,0,0,0,3.83985,1.02051c1.5,0,2.84961-.30078,3.47949-3.96a35.12509,35.12509,0,0,0,.4502-6.15039c0-4.58985-.99024-5.57911-4.94922-5.57911-.60059,0-1.16993.0293-2.10059.08985a88.66323,88.66323,0,0,1-4.19922,12.47949,38.30392,38.30392,0,0,1-2.19043,4.67969,1.13464,1.13464,0,0,1-1.0498.59961,1.40014,1.40014,0,0,1-1.46973-1.29,2.5424,2.5424,0,0,1,.47949-1.34961,64.29864,64.29864,0,0,0,3.41992-7.79981c.81055-2.18945.9004-2.51953,2.25-7.13964-.50976.03027-1.85937.12011-3.87011.33007-.59961.05957-1.01953.08985-1.13965.08985a1.15656,1.15656,0,0,1-1.29-1.29c0-1.19922.60059-1.22949,2.31055-1.34961.71972-.05957,3.959-.24024,4.64941-.27051C401.63965,20.14062,402.2998,16.96094,402.4502,16.33105ZM413.84961,17.501c1.13965,0,4.01953,1.88964,5.60937,5.63964a17.82224,17.82224,0,0,1,1.29,5.37012c0,.17969.17969,1.71.17969,2.42969a1.38945,1.38945,0,0,1-1.499,1.62012c-1.23047,0-1.29-.93067-1.35059-1.74024a18.4915,18.4915,0,0,0-1.74023-7.8291c-.68946-1.44043-1.31934-1.95019-2.96973-3.33008a1.47277,1.47277,0,0,1-.65918-1.08008,1.12487,1.12487,0,0,1,.44922-.87011A1.18007,1.18007,0,0,1,413.84961,17.501Z"/></g><g class="cls-2"><path class="cls-1" d="M434.03906,15.76074c7.55957,0,8.04,8.93946,8.04,12.56934,0,7.7998-3.08984,10.62012-7.34961,12.05957a24.54633,24.54633,0,0,1-8.21972,1.02051c-.81055,0-1.9502-.03028-1.9502-1.35059,0-.83984.4502-1.22949,1.71-1.22949.4502,0,2.49024.03027,2.91016,0a15.3276,15.3276,0,0,0,6.2998-1.65039c2.2793-1.28907,3.7793-3.56934,3.7793-8.81934,0-2.30957-.05957-10.13965-5.30957-10.13965-3.59961,0-6.08984,3.03028-7.16992,4.58985A12.50522,12.50522,0,0,0,424.29,30.34082c0,.50977.21,2.87988.21,3.2998,0,.44922-.06055,1.29-1.37988,1.29-.99024,0-1.23047-.51074-1.32032-1.29a32.74453,32.74453,0,0,1-.26953-4.83007,81.94635,81.94635,0,0,1,1.13965-12.23926c.14942-.81055.29981-1.56055,1.5-1.56055.71973,0,1.37988.24024,1.37988,1.11035a17.56919,17.56919,0,0,1-.48046,2.7295,26.24406,26.24406,0,0,0-.65918,4.23046C425.42969,21.01074,427.94922,15.76074,434.03906,15.76074Z"/></g><g class="cls-2"><path class="cls-1" d="M463.31934,40.2998c0,1.23047-1.10938,1.29-1.5293,1.29-1.1709,0-1.29-.89941-1.41016-1.67968-.69043-4.55957-1.7705-9.14942-3-14.09961-1.71.69043-2.09961.87011-3.69043,1.62011a3.36065,3.36065,0,0,1-1.34961.38965,1.3202,1.3202,0,0,1-1.20019-1.41015c0-.54.24023-.86914.93066-1.19922.75-.33008,1.13965-.48047,4.709-1.83008-.50977-1.86035-.62989-2.19043-1.499-5.12988a3.5409,3.5409,0,0,1-.18066-.90039,1.29415,1.29415,0,0,1,1.41016-1.25977,1.26329,1.26329,0,0,1,1.29,1.02051c.24024.62988.59961,2.12988,1.46973,5.36914,1.25977-.41992,4.76953-1.58985,5.72949-1.85938a26.98266,26.98266,0,0,0-1.40918-3.15039c-.45019-.77929-.45019-.96-.45019-1.13965a1.16914,1.16914,0,0,1,1.25976-1.11035,1.50478,1.50478,0,0,1,1.16993.57032,37.85024,37.85024,0,0,1,2.00976,4.20019,15.965,15.965,0,0,1,2.94043-.30078c3.56934,0,6.98926,2.10059,6.98926,6.87012,0,2.82031-1.01953,8.21972-8.12988,8.21972a6.97509,6.97509,0,0,1-2.81934-.48047,1.14539,1.14539,0,0,1-.75-1.13964,1.10932,1.10932,0,0,1,1.22949-1.2002,4.43379,4.43379,0,0,1,1.02051.15039,6.95214,6.95214,0,0,0,1.34961.12012,5.78684,5.78684,0,0,0,3.71973-1.13965,5.85551,5.85551,0,0,0,1.67968-4.29,5.06917,5.06917,0,0,0-1.0498-3.41992,4.57992,4.57992,0,0,0-3.35938-1.35059,14.74966,14.74966,0,0,0-1.98046.18067,18.2712,18.2712,0,0,1,.99023,3.62988c0,.87012-.71973,1.22949-1.43945,1.22949a.96373.96373,0,0,1-1.11035-.80957c-.29981-.96-.75-2.49023-1.08008-3.45019a59.68178,59.68178,0,0,0-5.90918,2.00976C461.39941,30.9707,463.31934,38.74023,463.31934,40.2998Z"/></g><g class="cls-2"><path class="cls-1" d="M500.21973,27.251a10.41334,10.41334,0,0,1,.87011,4.28906c0,3.45019-1.53027,6.38965-3.93066,7.76953a16.56064,16.56064,0,0,1-7.499,1.91992c-.33008.03028-1.23047.09082-1.86036.09082-.75,0-1.97949,0-1.97949-1.35058,0-1.08008.62989-1.10938,2.63965-1.10938,8.33984-.06055,9.62988-3.33008,10.16992-6.78027-.54.93066-1.7705,3.08984-5.96972,3.08984-4.79981,0-7.29-2.75976-7.29-5.78906,0-3.06055,2.58008-5.96973,7.37988-5.96973a8.259,8.259,0,0,1,4.91992,1.28907l-.06054-3.68946c-3.92969.08985-8.249.15039-11.75879.15039-.72071,0-4.11036,0-4.47071-.08984a1.05976,1.05976,0,0,1-.71972-1.14063c0-1.22949.90039-1.22949,1.56054-1.22949,1.55957,0,4.04981.0293,5.60938.0293,3.24023-.0293,6.50976-.05957,9.75-.11914l-.03028-2.34082c0-.80957.38965-1.40918,1.29-1.40918a1.24707,1.24707,0,0,1,1.37989,1.37988v2.30957c4.83007-.12012,5.36914-.12012,5.46-.12012.44922,0,1.34961.03028,1.34961,1.23047,0,1.16992-.90039,1.19922-1.34961,1.19922-1.53028.03027-3.93067.09082-5.46.12012Zm-3.83985,4.709a3.75151,3.75151,0,0,0,1.34961-2.84961c0-2.72949-2.5498-3.56933-4.58984-3.56933-2.54981,0-5.12988,1.25976-5.12988,3.80957,0,2.63964,2.64062,3.62988,4.65039,3.62988A6.20468,6.20468,0,0,0,496.37988,31.96Z"/></g><g class="cls-2"><path class="cls-1" d="M512.19141,31.48047c-2.22071-.96-2.79-1.71-2.79-3.03027,0-1.76954,1.20019-2.42969,4.91992-4.5,7.88965-4.40918,10.61914-6.209,12.68945-8.00879a2.33682,2.33682,0,0,1,1.58985-.81055,1.53167,1.53167,0,0,1,1.67968,1.37988c0,.60059-.2998.93067-1.53027,1.83008a110.13556,110.13556,0,0,1-13.46875,7.97949,14.0585,14.0585,0,0,0-2.16016,1.25977.97186.97186,0,0,0-.38964.75c0,.63086.50976.90039,1.40917,1.29A102.62391,102.62391,0,0,1,527.7002,36.46a23.24826,23.24826,0,0,1,3.90039,2.7002,1.64941,1.64941,0,0,1,.44921,1.0498,1.69421,1.69421,0,0,1-1.55957,1.46973,2.81017,2.81017,0,0,1-1.76953-.87012,70.79892,70.79892,0,0,0-13.01953-7.79883Z"/></g></g></svg>