<?xml version="1.0" encoding="UTF-8"?><svg id="mark003" xmlns="http://www.w3.org/2000/svg" width="10" height="10" viewBox="0 0 10 10"><defs><style>.cls-1{fill:#0070ff;}</style></defs><path class="cls-1" d="m6.19999981,10H1.79999995c-.99999994,0-1.79999995-.80000019-1.79999995-1.80000019V3.79999995c0-1,.80000001-1.79999995,1.79999995-1.79999995h1.79999995c.29999995,0,.5.20000005.5.5s-.0999999.5-.39999986.5h-1.9000001c-.39999998,0-.69999993.29999995-.69999993.79999995v4.39999986c0,.39999962.39999998.80000019.80000007.80000019h4.4000001c.39999962-.10000038.69999981-.39999962.69999981-.80000019v-2.19999981c0-.30000019.19999981-.5.5-.5s.5.19999981.5.5v2.19999981c.10000038,1-.80000019,1.80000019-1.80000019,1.80000019Z"/><path class="cls-1" d="m4,6.5c-.29999995,0-.5-.19999981-.5-.5,0-.0999999.0999999-.30000019.20000005-.4000001L9.10000038.19999981C9.30000019-.00000019,9.60000038-.00000019,9.80000019.19999981c.19999981.19999999.19999981.5,0,.69999999h0l-5.4000001,5.40000039c-.0999999.0999999-.20000029.19999981-.4000001.19999981Z"/><path class="cls-1" d="m9.5,5.5999999c-.30000019,0-.5-.19999981-.5-.5V1.0999999h-4c-.30000019,0-.5-.19999999-.5-.5s.0999999-.5999999.4000001-.5999999h4.5999999c.30000019,0,.5.2.5.5v4.5999999c0,.30000019-.19999981.5-.5.5Z"/></svg>